<svg width="1521" height="1128" viewBox="0 0 1521 1128" fill="none" xmlns="http://www.w3.org/2000/svg">
<g clip-path="url(#clip0_49_1394)">
<g opacity="0.5">
<path d="M1238.77 520.055L1218.84 510.973C1207.01 505.581 1192.77 508.042 1183.81 517.02L1115.66 585.31C1120.08 586.357 1124.49 587.412 1128.92 588.458C1134.85 585.543 1141.99 581.428 1149.4 575.685C1156.46 570.205 1161.89 564.693 1165.95 559.972C1158.11 570.229 1150.27 580.486 1142.43 590.743C1146.61 591.174 1150.78 591.613 1154.96 592.044C1158.27 590.495 1161.7 588.713 1165.2 586.684C1177.22 579.695 1186.42 571.771 1193.3 564.63C1185.32 573.863 1177.32 583.098 1169.34 592.333C1183.12 593.707 1194.07 591.901 1200.75 590.311C1209.08 588.33 1227.48 584.456 1239.6 569.391C1263.49 539.707 1241.63 528.124 1267.69 512.107L1238.77 520.048V520.055ZM990.986 635.021L966.7 614.02C952.295 601.559 930.811 599.354 913.828 608.588L784.658 678.82C790.481 682.095 796.314 685.37 802.138 688.653C811.974 686.863 824.095 683.859 837.359 678.627C850.002 673.635 860.328 667.94 868.326 662.827C852.348 674.337 836.37 685.849 820.401 697.351C826.173 699.652 831.938 701.953 837.71 704.254C843.165 703.367 848.886 702.208 854.822 700.706C875.258 695.546 892.103 687.918 905.255 680.472C889.543 690.458 873.824 700.451 858.112 710.436C877.191 717.937 893.667 719.759 903.949 720.174C916.8 720.693 944.891 722.554 969.227 705.891C1017.18 673.06 991.321 647.721 1036.03 635.292L990.994 635.012L990.986 635.021ZM693.248 707.601L673.276 680.514C661.429 664.442 639.653 657.491 619.681 663.402L467.824 708.384L483.526 722.387C494.196 722.666 507.554 722.163 522.647 719.599C537.035 717.154 549.207 713.464 558.794 709.894C539.303 718.393 519.812 726.893 500.321 735.391C505.741 739.034 511.162 742.676 516.573 746.32C522.466 746.575 528.703 746.615 535.248 746.343C557.781 745.417 577.202 741.135 592.734 736.247C573.896 743.22 555.058 750.194 536.219 757.167C554.164 769.101 570.837 774.566 581.421 777.226C594.649 780.557 623.376 788.577 652.84 776.53C710.909 752.805 690.388 720.861 739.979 717.642L693.24 707.593L693.248 707.601ZM398.623 745.001L380.797 704.557C370.224 680.561 343.989 665.847 316.234 668.347L105.138 687.319C110.542 694.756 115.945 702.192 121.348 709.63C135.144 712.769 152.668 715.597 173.07 716.188C192.527 716.747 209.467 715.126 223.022 712.976C195.112 718.96 167.194 724.935 139.285 730.918C145.237 737.068 151.19 743.22 157.144 749.363C164.729 751.232 172.829 752.902 181.428 754.26C211.021 758.916 237.573 758.405 259.246 756.096C232.643 760.266 206.039 764.428 179.435 768.599C199.184 788.8 219.225 800.239 232.196 806.461C248.397 814.234 283.36 832.151 325.314 824.163C407.994 808.418 390.926 761.529 456.392 770.251L398.614 745.009L398.623 745.001ZM19.7677 727.259L35.7455 694.795C45.229 675.536 40.0063 652.771 22.9118 638.775L-107.135 532.334C-108.887 539.483 -110.64 546.633 -112.393 553.781C-106.697 563.184 -98.734 574.479 -87.7129 586.126C-77.207 597.229 -66.7099 605.712 -57.7589 612.023C-77.1813 599.889 -96.6037 587.747 -116.026 575.613C-116.645 582.347 -117.263 589.081 -117.881 595.815C-114.841 601.063 -111.387 606.495 -107.462 612.015C-93.9235 631.019 -78.7704 645.461 -65.1807 656.189C-82.7133 643.767 -100.237 631.338 -117.77 618.917C-119.695 641.147 -115.837 658.65 -112.59 669.314C-108.527 682.637 -100.495 712.026 -71.9413 730.83C-15.6755 767.887 4.86382 732.228 35.8315 773.399L19.759 727.268L19.7677 727.259ZM1665.62 178.804L1604.48 188.461C1568.2 194.189 1540.25 221.357 1535.7 255.306L1501.01 513.537C1512.87 509.216 1524.73 504.894 1536.58 500.572C1544.91 484.956 1553.89 464.794 1560.6 440.535C1567 417.4 1569.63 396.655 1570.57 379.801C1570.8 414.948 1571.01 450.096 1571.24 485.244C1581.46 479.892 1591.71 474.539 1601.94 469.188C1606.71 460.641 1611.37 451.422 1615.72 441.525C1630.72 407.439 1637.68 375.495 1640.74 348.879C1638.83 381.941 1636.92 414.997 1635 448.059C1668.68 430.246 1690.31 409.557 1702.66 395.825C1718.11 378.674 1753.01 341.985 1754.06 289.439C1756.14 185.889 1686.27 192.791 1717.26 116.92L1665.61 178.804H1665.62Z" fill="#002526"/>
<path d="M1557.38 384.585L1469.8 379.568C1417.84 376.589 1369.91 405.634 1351.85 451.046L1214.55 796.42C1232.38 794.023 1250.22 791.62 1268.05 789.222C1284.94 770.211 1304.31 745.12 1321.95 713.711C1338.79 683.756 1349.62 655.965 1356.74 633.023C1344.86 681.512 1332.98 730.007 1321.11 778.494C1337.06 774.19 1353 769.884 1368.97 765.578C1378.52 755.242 1388.13 743.93 1397.56 731.604C1430.03 689.14 1450.69 647.219 1464.14 611.456C1450.04 656.428 1435.95 701.401 1421.85 746.375C1474.41 731.924 1511.4 709.901 1533.19 694.692C1560.41 675.688 1621.21 635.603 1640.88 563.534C1679.64 421.498 1580.99 410.059 1649.98 314.817L1557.38 384.601V384.585Z" fill="#002526"/>
<path d="M1260.33 699.733L1229.9 688.405C1211.87 681.687 1191.21 686.759 1179.09 700.89L1086.87 808.371C1093.5 809.465 1100.13 810.559 1106.75 811.654C1115.14 806.757 1125.16 799.967 1135.38 790.757C1145.12 781.97 1152.47 773.302 1157.89 765.945C1147.56 781.842 1137.24 797.739 1126.91 813.634C1133.11 813.851 1139.31 814.058 1145.51 814.274C1150.2 811.646 1155.03 808.691 1159.93 805.343C1176.79 793.825 1189.4 781.219 1198.67 770.004C1188.01 784.415 1177.34 798.817 1166.67 813.228C1187.14 813.835 1203.03 810.056 1212.67 807.037C1224.71 803.266 1251.32 795.686 1267.37 772.273C1299.03 726.141 1265.5 711.331 1301.96 685.09L1260.33 699.733ZM987.76 849.238L959.284 829.707C942.386 818.116 919.33 818.196 902.519 829.898L774.715 918.886C781.321 921.706 787.917 924.526 794.523 927.337C804.72 924.334 817.184 919.789 830.55 912.743C843.299 906.025 853.512 898.82 861.33 892.509C845.893 906.504 830.448 920.507 815.011 934.503C821.428 936.292 827.845 938.081 834.253 939.871C839.922 938.313 845.832 936.444 851.931 934.183C872.926 926.419 889.789 916.425 902.76 907.064C887.401 919.422 872.042 931.779 856.673 944.137C877.874 949.944 895.578 950.016 906.54 949.304C920.232 948.41 950.255 947.22 973.878 926.819C1020.45 886.614 989.736 862.666 1035.52 844.461L987.743 849.238H987.76Z" fill="#002526"/>
<path d="M791.576 940.573L740.766 879.168C710.614 842.734 658.359 828.987 612.152 845.323L260.719 969.577C273.698 979.946 286.679 990.315 299.659 1000.68C324.828 1000.04 356.217 997.264 391.41 989.396C424.964 981.896 453.114 971.751 475.208 962.173C430.488 984.539 385.758 1006.91 341.037 1029.26C354.309 1037.19 367.581 1045.12 380.853 1053.05C394.769 1052.94 409.467 1052.28 424.835 1050.86C477.776 1045.95 522.935 1033.53 558.834 1020.16C515.436 1038.85 472.03 1057.55 428.632 1076.24C472.57 1102.2 512.593 1113.06 537.899 1118.05C569.511 1124.3 638.302 1139.72 706.035 1107.82C839.51 1044.94 786.732 972.173 903.077 958.618L791.585 940.573H791.576Z" fill="#002526"/>
<path d="M355.934 1014.75L347.412 965.225C342.362 935.844 317.192 913.014 285.477 909.036L44.2812 878.817C48.2241 888.443 52.167 898.068 56.11 907.695C70.6445 914.564 89.4228 921.993 112.049 927.625C133.628 932.993 153.007 935.301 168.762 936.196C135.888 936.076 103.021 935.956 70.1465 935.844C75.0686 944.168 79.9821 952.483 84.9044 960.808C92.8589 964.746 101.44 968.588 110.658 972.19C142.407 984.604 172.224 990.499 197.092 993.2C166.194 991.37 135.294 989.549 104.395 987.719C120.777 1015.1 139.942 1032.77 152.681 1042.88C168.59 1055.51 202.607 1084.05 251.735 1085.33C348.555 1087.89 342.688 1031.33 413.377 1057.02L355.934 1014.74V1014.75Z" fill="#002526"/>
</g>
</g>
<defs>
<clipPath id="clip0_49_1394">
<rect width="1520.8" height="1127.93" fill="white"/>
</clipPath>
</defs>
</svg>
