<?xml version="1.0" encoding="UTF-8"?>
<svg id="Layer_2" data-name="Layer 2" xmlns="http://www.w3.org/2000/svg" viewBox="0 0 424.26 162.64">
  <g id="Layer_1-2" data-name="Layer 1">
    <g>
      <path d="m204.66.6c-22.26,0-40.31,18.05-40.31,40.31s18.05,40.31,40.31,40.31,40.31-18.05,40.31-40.31S226.92.6,204.66.6Zm0,44.69c-2.42,0-4.38-1.96-4.38-4.38s1.96-4.38,4.38-4.38,4.38,1.96,4.38,4.38-1.96,4.38-4.38,4.38Z" fill="#1f1f1d"/>
      <path d="m383.95.6c-22.26,0-40.31,18.05-40.31,40.31s18.05,40.31,40.31,40.31,40.31-18.05,40.31-40.31S406.21.6,383.95.6Zm0,44.69c-2.42,0-4.38-1.96-4.38-4.38s1.96-4.38,4.38-4.38,4.38,1.96,4.38,4.38-1.96,4.38-4.38,4.38Z" fill="#1f1f1d"/>
      <path d="m80.89,162.09c12.8,0,25.6.07,38.4-.03,6.66-.05,13.14-1.07,19.18-4.24,9.93-5.22,16.56-13.12,19.9-23.82,1.66-5.31,1.71-10.79,1.69-16.28-.05-15.64-.07-31.27-.1-46.91,0-1.07.01-2.14-.03-3.22-.12-3.31-2.95-5.11-5.94-3.74-20.25,9.26-40.48,18.53-60.73,27.79-7.89,3.61-15.81,7.18-23.7,10.79-2.1.96-4.03.93-5.78-.68-2.67-2.45-1.82-6.42,1.68-8.01,6.07-2.76,12.12-5.55,18.19-8.32,16.19-7.37,32.41-14.69,48.57-22.14,5.5-2.54,10.32-6.14,13.8-11.17,4.76-6.89,5.83-14.79,4.73-22.8-1.77-12.86-8.89-22.08-21.13-26.46-12.72-4.55-24.47-2.27-34.4,7.26-2.1,2.02-4.41,2.92-7.28,2.92-27.75-.04-55.49-.03-83.24-.03C.89,13.01,0,13.87,0,17.65c.02,13.68-.06,27.37.13,41.05.13,9.2,8.45,17.06,17.66,17.4,5.55.21,10.29-2.06,15.09-4.24,15-6.82,29.97-13.68,44.96-20.52,1.6-.73,3.2-1.47,4.8-2.19,2.62-1.19,5.39-.27,6.57,2.18,1.19,2.47.24,5.27-2.4,6.49-7.36,3.41-14.77,6.71-22.14,10.1-13.15,6.03-26.33,11.99-39.41,18.17-6.24,2.94-11.99,6.69-16.43,12.14-4.5,5.52-6.6,11.96-7.19,18.95-.69,8.12.23,16.03,4.22,23.27,7.18,12.98,17.84,21,33.05,21.39,13.99.36,27.99.08,41.98.08,0,.07,0,.13,0,.2ZM119.75,19.08c0,3.51-3.04,6.53-6.52,6.49-3.55-.04-6.37-2.99-6.33-6.63.03-3.51,2.9-6.38,6.37-6.37,3.53,0,6.49,2.98,6.48,6.52Z" fill="#1f1f1d"/>
      <path d="m199.6,162.64s-6.42.04-11.47-.91c-1.87-.35-2.98-.71-4.01-1.03-10.84-3.41-12.95-13.25-13.45-21.18-.7-10.04-.3-19.77.1-28.2.1-.3.1-.8.1-1.4.3-4.72.5-9.94,2.91-14.65,2.41-4.72,6.93-7.43,11.74-7.43,3.71,0,6.93,1.41,9.63,4.22,4.32,4.92,4.52,11.34,4.52,15.76v6.22c.1,5.12,0,10.44.3,15.66v2.21c.8,0,1.61-.1,2.31-.1.62,0,1.08.07,1.31.1,4.47.52,6.71.78,7.68,1.05.89.24,3.66,1.03,6.01,3.21,4.21,3.9,4.23,9.7,4.23,11.47,0,2.15.03,6.25-2.82,9.6-2.09,2.46-4.67,3.28-7.63,4.22-2.37.75-11.46,1.2-11.46,1.2Z" fill="#1f1f1d"/>
      <path d="m356.69,139.02c0,6.42.2,15.26-6.52,20.37-2.31,1.91-5.22,2.91-8.33,2.91s-6.02-1-8.43-3.01c-1.81-1.5-4.42-4.82-7.73-10.03-1.3,7.43-7.33,13.05-14.35,13.05-1.91,0-3.71-.4-5.52-1.2-4.01-1.71-6.72-4.82-8.03-9.33-1.1-3.51-1-7.23-1-10.54v-.1c0-6.72.3-13.45.6-19.87l.2-5.42c.3-4.72.4-9.23.7-13.95.4-5.12,2.51-9.44,6.02-11.84,2.11-1.51,4.31-2.21,6.62-2.21,7.43,0,12.25,7.53,15.76,12.45l.3.5,1.61,2.31c.1-1.1.1-2.21.4-3.41.7-3.51,1.91-6.12,3.71-8.03,2.01-2.01,4.42-3.21,7.23-3.61.7-.1,1.21-.1,1.91-.1,5.62,0,10.64,3.71,12.15,9.03,2.01,6.82,2.71,37.44,2.71,40.35v1.71Z" fill="#1f1f1d"/>
      <path d="m291.95,119.25c-2.91-11.34-9.43-21.68-19.47-27.4-12.15-6.72-25.89-4.82-35.73,4.72-11.24,11.24-13.03,29.18-11.64,42.05.77,7.13.59,6.99,1.56,10.09,1.64,5.23,1.2,4.1,2.8,6.5,1.17,1.76,2.7,2.98,4.03,4.17,1.33,1.18,2.87,2.07,4.66,2.55,1.13.3,2.36.44,3.71.38,7.23-.3,11.54-7.43,11.24-14.15v-.2c.1,0,.1-.1.2-.1,1.3-.3,2.71-.4,4.42-.4.7,0,3.71-.1,3.91.6v.2c.3,4.52,2.01,8.93,5.92,11.64,6.42,4.62,14.96,2.21,19.47-3.91,7.33-10.24,7.83-24.99,4.92-36.73Zm-34.04,9.86c-2.55,0-4.61-2.06-4.61-4.61s2.06-4.61,4.61-4.61,4.61,2.06,4.61,4.61-2.06,4.61-4.61,4.61Z" fill="#1f1f1d"/>
      <path d="m406.87,93.75c-1.51-1-3.21-1.91-4.92-2.61-6.92-3.11-14.45-3.91-21.98-2.81-5.92.8-14.25,2.71-17.46,8.33-1.2,2.01-1.3,4.32-1.61,6.72-.4,7.73-.7,32.12-.7,36.53,0,3.71-.6,8.13,1,11.64,2.71,5.52,8.83,8.13,14.35,9.64,1.1.3,1.91.3,2.81.6,17.96,2.91,36.73-6.52,43.46-23.69,6.52-16.46-.6-35.03-14.95-44.36Zm-14.7,35.35c-2.55,0-4.61-2.06-4.61-4.61s2.06-4.61,4.61-4.61,4.61,2.06,4.61,4.61-2.06,4.61-4.61,4.61Z" fill="#1f1f1d"/>
      <g>
        <rect x="246.2" y="20.02" width="96.2" height="39.94" rx="19.97" ry="19.97" transform="translate(57.92 219.81) rotate(-45)" fill="#1f1f1d"/>
        <path d="m314.19,0h-39.78c-11.03,0-19.97,8.94-19.97,19.97h0c0,5.63,2.34,10.72,6.09,14.34,1.97,1.91,5.1,1.9,7.04-.04l22.56-22.56c.58-.58,1.51-.58,2.09,0,.58.58.58,1.51,0,2.09l-24.84,24.84c2.19.82,4.55,1.29,7.02,1.29h39.78c11.03,0,19.97-8.94,19.97-19.97h0C334.16,8.94,325.22,0,314.19,0Z" fill="#1f1f1d"/>
        <path d="m328.12,45.62c-1.97-1.92-5.11-1.91-7.05.03l-22.65,22.65c-.58.58-1.51.58-2.09,0-.58-.58-.58-1.51,0-2.09l24.63-24.63c.15-.15.09-.41-.1-.48-2.09-.74-4.32-1.16-6.66-1.16h-39.78c-11.03,0-19.97,8.94-19.97,19.97h0c0,11.03,8.94,19.97,19.97,19.97h39.78c11.03,0,19.97-8.94,19.97-19.97h0c0-5.6-2.31-10.66-6.04-14.28Z" fill="#1f1f1d"/>
      </g>
    </g>
  </g>
</svg>