<?xml version="1.0" encoding="UTF-8"?>
<svg id="Layer_2" data-name="Layer 2" xmlns="http://www.w3.org/2000/svg" viewBox="0 0 424.15 162.6">
  <g id="Layer_1-2" data-name="Layer 1">
    <g>
      <path d="m204.53.6c-22.3,0-40.3,18-40.3,40.3s18,40.3,40.3,40.3,40.3-18,40.3-40.3S226.83.6,204.53.6Zm0,44.7c-2.4,0-4.4-2-4.4-4.4s2-4.4,4.4-4.4,4.4,2,4.4,4.4-2,4.4-4.4,4.4Z" fill="#81e2c8"/>
      <path d="m383.83.6c-22.3,0-40.3,18-40.3,40.3s18,40.3,40.3,40.3,40.3-18,40.3-40.3S406.13.6,383.83.6Zm0,44.7c-2.4,0-4.4-2-4.4-4.4s2-4.4,4.4-4.4,4.4,2,4.4,4.4-2,4.4-4.4,4.4Z" fill="#81e2c8"/>
      <path d="m80.73,162.1c12.8,0,25.6.1,38.4,0,6.7-.1,13.1-1.1,19.2-4.2,9.9-5.2,16.6-13.1,19.9-23.8,1.7-5.3,1.7-10.8,1.7-16.3,0-15.6-.1-31.3-.1-46.9v-3.2c-.1-3.3-2.9-5.1-5.9-3.7-20.2,9.3-40.5,18.5-60.7,27.8-7.9,3.6-15.8,7.2-23.7,10.8-2.1,1-4,.9-5.8-.7-2.7-2.5-1.8-6.4,1.7-8,6.1-2.8,12.1-5.6,18.2-8.3,16.2-7.4,32.4-14.7,48.6-22.1,5.5-2.5,10.3-6.1,13.8-11.2,4.8-6.9,5.8-14.8,4.7-22.8-1.8-12.9-8.9-22.1-21.1-26.5-12.7-4.6-24.5-2.3-34.4,7.3-2.1,2-4.4,2.9-7.3,2.9H4.73C.93,13.2.02,14.1.02,17.8.02,31.5-.07,45.2.12,58.8c.1,9.2,8.4,17.1,17.7,17.4,5.6.2,10.3-2.1,15.1-4.2,15-6.8,30-13.7,45-20.5,1.6-.7,3.2-1.5,4.8-2.2,2.6-1.2,5.4-.3,6.6,2.2,1.2,2.5.2,5.3-2.4,6.5-7.4,3.4-14.8,6.7-22.1,10.1-13.1,6-26.3,12-39.4,18.2-6.2,2.9-12,6.7-16.4,12.1-4.5,5.5-6.6,12-7.2,18.9-.7,8.1.2,16,4.2,23.3,7.2,13,17.8,21,33,21.4,14,.4,28,.1,42,.1q-.3-.1-.3,0ZM119.63,19.1c0,3.5-3,6.5-6.5,6.5s-6.4-3-6.3-6.6c0-3.5,2.9-6.4,6.4-6.4s6.4,2.9,6.4,6.5Z" fill="#81e2c8"/>
      <path d="m199.53,162.6s-6.4,0-11.5-.9c-1.9-.4-3-.7-4-1-10.8-3.4-12.9-13.2-13.4-21.2-.7-10-.3-19.8.1-28.2.1-.3.1-.8.1-1.4.3-4.7.5-9.9,2.9-14.7,2.4-4.7,6.9-7.4,11.7-7.4,3.7,0,6.9,1.4,9.6,4.2,4.3,4.9,4.5,11.3,4.5,15.8v6.2c.1,5.1,0,10.4.3,15.7v2.2c.8,0,1.6-.1,2.3-.1.6,0,1.1.1,1.3.1,4.5.5,6.7.8,7.7,1.1.9.2,3.7,1,6,3.2,4.2,3.9,4.2,9.7,4.2,11.5,0,2.2,0,6.2-2.8,9.6-2.1,2.5-4.7,3.3-7.6,4.2-2.4.7-11.4,1.1-11.4,1.1Z" fill="#81e2c8"/>
      <path d="m356.53,139c0,6.4.2,15.3-6.5,20.4-2.3,1.9-5.2,2.9-8.3,2.9s-6-1-8.4-3c-1.8-1.5-4.4-4.8-7.7-10-1.3,7.4-7.3,13-14.4,13-1.9,0-3.7-.4-5.5-1.2-4-1.7-6.7-4.8-8-9.3-1.1-3.5-1-7.2-1-10.5v-.1c0-6.7.3-13.4.6-19.9l.2-5.4c.3-4.7.4-9.2.7-13.9.4-5.1,2.5-9.4,6-11.8,2.1-1.5,4.3-2.2,6.6-2.2,7.4,0,12.2,7.5,15.8,12.4l.3.5,1.6,2.3c.1-1.1.1-2.2.4-3.4.7-3.5,1.9-6.1,3.7-8,2-2,4.4-3.2,7.2-3.6.7-.1,1.2-.1,1.9-.1,5.6,0,10.6,3.7,12.1,9,2,6.8,2.7,37.4,2.7,40.3v1.6h0Z" fill="#81e2c8"/>
      <path d="m291.83,119.2c-2.9-11.3-9.4-21.7-19.5-27.4-12.1-6.7-25.9-4.8-35.7,4.7-11.2,11.2-13,29.2-11.6,42.1.8,7.1.6,7,1.6,10.1,1.6,5.2,1.2,4.1,2.8,6.5,1.2,1.8,2.7,3,4,4.2s2.9,2.1,4.7,2.5c1.1.3,2.4.4,3.7.4,7.2-.3,11.5-7.4,11.2-14.2v-.2c.1,0,.1-.1.2-.1,1.3-.3,2.7-.4,4.4-.4.7,0,3.7-.1,3.9.6v.2c.3,4.5,2,8.9,5.9,11.6,6.4,4.6,15,2.2,19.5-3.9,7.3-10.2,7.8-24.9,4.9-36.7Zm-34,9.9c-2.5,0-4.6-2.1-4.6-4.6s2.1-4.6,4.6-4.6,4.6,2.1,4.6,4.6-2.1,4.6-4.6,4.6Z" fill="#81e2c8"/>
      <path d="m406.73,93.8c-1.5-1-3.2-1.9-4.9-2.6-6.9-3.1-14.5-3.9-22-2.8-5.9.8-14.3,2.7-17.5,8.3-1.2,2-1.3,4.3-1.6,6.7-.4,7.7-.7,32.1-.7,36.5,0,3.7-.6,8.1,1,11.6,2.7,5.5,8.8,8.1,14.4,9.6,1.1.3,1.9.3,2.8.6,18,2.9,36.7-6.5,43.5-23.7,6.5-16.3-.6-34.9-15-44.2Zm-14.7,35.3c-2.5,0-4.6-2.1-4.6-4.6s2.1-4.6,4.6-4.6,4.6,2.1,4.6,4.6-2,4.6-4.6,4.6Z" fill="#81e2c8"/>
      <g>
        <path d="m328.23,34.2l-39.8,39.8c-7.8,7.8-20.4,7.8-28.2,0h0c-7.8-7.8-7.8-20.4,0-28.2l39.7-39.8c7.8-7.8,20.4-7.8,28.2,0h0c7.9,7.8,7.9,20.4.1,28.2Z" fill="#81e2c8"/>
        <path d="m314.03,0h-39.7c-11,0-20,8.9-20,20h0c0,5.6,2.3,10.7,6.1,14.3,2,1.9,5.1,1.9,7,0l22.6-22.6c.6-.6,1.5-.6,2.1,0s.6,1.5,0,2.1l-24.8,24.8c2.2.8,4.5,1.3,7,1.3h39.8c11,0,20-8.9,20-20h0c-.1-11-9-19.9-20.1-19.9Z" fill="#81e2c8"/>
        <path d="m328.03,45.6c-2-1.9-5.1-1.9-7.1,0l-22.6,22.7c-.6.6-1.5.6-2.1,0s-.6-1.5,0-2.1l24.6-24.6c.1-.1.1-.4-.1-.5-2.1-.7-4.3-1.2-6.7-1.2h-39.7c-11,0-20,8.9-20,20h0c0,11,8.9,20,20,20h39.8c11,0,20-8.9,20-20h0c-.1-5.6-2.4-10.7-6.1-14.3Z" fill="#81e2c8"/>
      </g>
    </g>
  </g>
</svg>