<?xml version="1.0" encoding="UTF-8"?>
<svg id="Layer_2" data-name="Layer 2" xmlns="http://www.w3.org/2000/svg" viewBox="0 0 160.06 161.52">
  <g id="Layer_1-2" data-name="Layer 1">
    <path d="m80.89,161.49c12.8,0,25.6.07,38.4-.03,6.66-.05,13.14-1.07,19.18-4.24,9.93-5.22,16.56-13.12,19.9-23.82,1.66-5.31,1.71-10.79,1.69-16.28-.05-15.64-.07-31.27-.1-46.91,0-1.07.01-2.14-.03-3.22-.12-3.31-2.95-5.11-5.94-3.74-20.25,9.26-40.48,18.53-60.73,27.79-7.89,3.61-15.81,7.18-23.7,10.79-2.1.96-4.03.93-5.78-.68-2.67-2.45-1.82-6.42,1.68-8.01,6.07-2.76,12.12-5.55,18.19-8.32,16.19-7.37,32.41-14.69,48.57-22.14,5.5-2.54,10.32-6.14,13.8-11.17,4.76-6.89,5.83-14.79,4.73-22.8-1.77-12.86-8.89-22.08-21.13-26.46C116.9-2.29,105.15,0,95.22,9.52c-2.1,2.02-4.41,2.92-7.28,2.92-27.75-.04-55.49-.03-83.24-.03C.89,12.41,0,13.27,0,17.05c.02,13.68-.06,27.37.13,41.05.13,9.2,8.45,17.06,17.66,17.4,5.55.21,10.29-2.06,15.09-4.24,15-6.82,29.97-13.68,44.96-20.52,1.6-.73,3.2-1.47,4.8-2.19,2.62-1.19,5.39-.27,6.57,2.18,1.19,2.47.24,5.27-2.4,6.49-7.36,3.41-14.77,6.71-22.14,10.1-13.15,6.03-26.33,11.99-39.41,18.17-6.24,2.94-11.99,6.69-16.43,12.14-4.5,5.52-6.6,11.96-7.19,18.95-.69,8.12.23,16.03,4.22,23.27,7.18,12.98,17.84,21,33.05,21.39,13.99.36,27.99.08,41.98.08,0,.07,0,.13,0,.2ZM119.75,18.48c0,3.51-3.04,6.53-6.52,6.49-3.55-.04-6.37-2.99-6.33-6.63.03-3.51,2.9-6.38,6.37-6.37,3.53,0,6.49,2.98,6.48,6.52Z" fill="#86be41"/>
  </g>
</svg>